<svg width="512" height="513" viewBox="0 0 512 513" fill="none" xmlns="http://www.w3.org/2000/svg">
<rect y="0.960205" width="512" height="512" fill="#D6E8FF"/>
<path d="M255.329 68.3682C217.752 68.3682 181.018 79.4821 149.773 100.305C118.529 121.127 94.1765 150.723 79.7962 185.349C65.4158 219.976 61.6533 258.078 68.9843 294.837C76.3153 331.597 94.4107 365.362 120.982 391.864C147.553 418.366 181.407 436.415 218.263 443.727C255.119 451.038 293.32 447.286 328.038 432.943C362.755 418.6 392.428 394.311 413.305 363.148C434.182 331.985 445.325 295.347 445.325 257.868C445.325 207.609 425.308 159.409 389.677 123.871C354.046 88.3333 305.719 68.3682 255.329 68.3682ZM319.194 321.565H255.329C238.392 321.565 222.147 314.854 210.171 302.909C198.194 290.963 191.465 274.762 191.465 257.868C191.465 240.974 198.194 224.773 210.171 212.827C222.147 200.881 238.392 194.171 255.329 194.171C272.267 194.171 288.511 200.881 300.488 212.827C312.465 224.773 319.194 240.974 319.194 257.868V321.565Z" fill="#1F2666"/>
<path d="M255.329 65.1831C216.531 65.1877 178.649 76.9403 146.694 98.8862C114.739 120.832 90.2169 151.937 76.3723 188.086C62.5277 224.235 60.0127 263.724 69.1601 301.329C78.3075 338.935 98.6863 372.885 127.6 398.687V321.565C127.6 287.806 141.035 255.426 164.955 231.54C188.874 207.653 221.321 194.213 255.169 194.17H255.329C272.266 194.17 288.51 200.881 300.487 212.827C312.464 224.772 319.193 240.974 319.193 257.868V261.053C319.193 313.603 436.575 194.17 436.575 194.17C423.591 156.524 399.148 123.86 366.656 100.736C334.163 77.6129 295.244 65.1836 255.329 65.1831Z" fill="#455199"/>
<path d="M255.329 66.7761C217.435 66.7761 180.393 77.9835 148.886 98.981C117.379 119.978 92.8217 149.823 78.3205 184.741C63.8193 219.658 60.0252 258.08 67.4178 295.149C74.8104 332.217 93.0579 366.266 119.853 392.991C146.647 419.716 180.786 437.915 217.951 445.289C255.116 452.662 293.639 448.878 328.648 434.414C363.657 419.951 393.58 395.458 414.632 364.033C435.685 332.609 446.921 295.663 446.921 257.868C446.921 207.188 426.736 158.582 390.805 122.746C354.875 86.909 306.142 66.7761 255.329 66.7761ZM247.346 394.818C219.242 394.818 191.768 386.506 168.401 370.932C145.033 355.359 126.82 333.225 116.065 307.327C105.31 281.43 102.496 252.934 107.978 225.442C113.461 197.949 126.995 172.696 146.868 152.875C166.74 133.054 192.06 119.556 219.624 114.088C247.188 108.619 275.759 111.426 301.724 122.153C327.689 132.88 349.882 151.045 365.496 174.352C381.11 197.659 389.444 225.06 389.444 253.091C389.444 290.679 374.473 326.728 347.824 353.307C321.176 379.886 285.032 394.818 247.346 394.818Z" fill="#3094BF"/>
<path d="M406.894 140.967C406.543 140.537 406.224 140.091 405.872 139.661C405.314 138.96 404.755 138.26 404.18 137.575C388.057 117.699 368.1 101.253 345.49 89.2091C322.88 77.1653 298.076 69.769 272.549 67.4584C247.021 65.1477 221.288 67.9696 196.873 75.757C172.458 83.5444 149.859 96.1389 130.412 112.795C110.966 129.45 95.0678 149.829 83.66 172.723C72.2523 195.618 65.5665 220.562 63.9986 246.08C62.4308 271.598 66.0128 297.17 74.5324 321.283C83.0521 345.395 96.3362 367.557 113.598 386.456C118.139 391.425 122.935 396.156 127.968 400.629V330.021C117.333 313.581 110.227 295.124 107.095 275.81C103.964 256.497 104.875 236.747 109.772 217.802C114.669 198.857 123.446 181.129 135.549 165.733C147.653 150.338 162.821 137.608 180.099 128.346C197.377 119.084 216.39 113.49 235.942 111.917C255.494 110.343 275.16 112.824 293.704 119.204C312.247 125.583 329.265 135.722 343.687 148.983C358.109 162.244 369.622 178.34 377.501 196.256H436.703C429.895 176.311 419.822 157.629 406.894 140.967Z" fill="#5AB9EA"/>
<path d="M255.329 65.1831C146.76 65.1831 63.7363 150.745 63.7363 256.275C63.7363 222.488 77.1934 190.085 101.147 166.194C125.101 142.302 157.589 128.881 191.465 128.881C208.238 128.881 224.847 132.176 240.344 138.578C255.841 144.98 269.921 154.364 281.782 166.194C293.643 178.023 303.051 192.067 309.47 207.523C315.889 222.98 319.193 239.546 319.193 256.275V319.973C319.193 353.76 332.65 386.163 356.604 410.054C380.557 433.946 413.046 447.367 446.921 447.367V256.275C446.921 150.745 363.898 65.1831 255.329 65.1831Z" fill="#C997C9"/>
<path d="M254.962 64.9603C236.161 64.9427 217.461 67.69 199.464 73.1136C198.043 73.5435 318.826 114.915 318.826 244.109V262.422C318.826 296.209 332.283 328.613 356.236 352.504C380.19 376.395 412.678 389.817 446.554 389.817V256.053C446.554 205.372 426.368 156.767 390.438 120.93C354.507 85.0932 305.775 64.9603 254.962 64.9603Z" fill="#E0B2DB"/>
</svg>
